<mxfile host="app.diagrams.net" modified="2021-11-02T03:05:10.645Z" agent="5.0 (Macintosh; Intel Mac OS X 10_15_7) AppleWebKit/537.36 (KHTML, like Gecko) Chrome/95.0.4638.54 Safari/537.36" etag="tvCQuBxT-XM7NeeVhfJ4" version="15.5.7" type="github">
  <diagram id="mSQKxS0kZbXmKDzQXLly" name="第 1 页">
    <mxGraphModel dx="1186" dy="764" grid="1" gridSize="10" guides="1" tooltips="1" connect="1" arrows="1" fold="1" page="1" pageScale="1" pageWidth="827" pageHeight="1169" math="0" shadow="0">
      <root>
        <mxCell id="0" />
        <mxCell id="1" parent="0" />
        <mxCell id="gizlz0MWikJhcCBtzlFW-2" value="" style="whiteSpace=wrap;html=1;shape=mxgraph.basic.pentagon" vertex="1" parent="1">
          <mxGeometry x="324" y="425" width="180" height="160" as="geometry" />
        </mxCell>
        <mxCell id="gizlz0MWikJhcCBtzlFW-3" value="Leader Ship" style="text;html=1;strokeColor=none;fillColor=none;align=center;verticalAlign=middle;whiteSpace=wrap;rounded=0;" vertex="1" parent="1">
          <mxGeometry x="376" y="395" width="76" height="30" as="geometry" />
        </mxCell>
        <mxCell id="gizlz0MWikJhcCBtzlFW-4" value="Professional ability" style="text;html=1;strokeColor=none;fillColor=none;align=center;verticalAlign=middle;whiteSpace=wrap;rounded=0;" vertex="1" parent="1">
          <mxGeometry x="210" y="470" width="114" height="30" as="geometry" />
        </mxCell>
        <mxCell id="gizlz0MWikJhcCBtzlFW-6" value="Text" style="text;html=1;strokeColor=none;fillColor=none;align=center;verticalAlign=middle;whiteSpace=wrap;rounded=0;" vertex="1" parent="1">
          <mxGeometry x="250" y="570" width="90" height="30" as="geometry" />
        </mxCell>
        <mxCell id="gizlz0MWikJhcCBtzlFW-7" value="Cultural Construction" style="text;html=1;strokeColor=none;fillColor=none;align=center;verticalAlign=middle;whiteSpace=wrap;rounded=0;" vertex="1" parent="1">
          <mxGeometry x="510" y="470" width="140" height="30" as="geometry" />
        </mxCell>
        <mxCell id="gizlz0MWikJhcCBtzlFW-8" value="System Construction" style="text;html=1;strokeColor=none;fillColor=none;align=center;verticalAlign=middle;whiteSpace=wrap;rounded=0;" vertex="1" parent="1">
          <mxGeometry x="490" y="570" width="130" height="30" as="geometry" />
        </mxCell>
      </root>
    </mxGraphModel>
  </diagram>
</mxfile>
